<?xml version="1.0" standalone="no"?>
<!DOCTYPE svg PUBLIC "-//W3C//DTD SVG 20010904//EN"
 "http://www.w3.org/TR/2001/REC-SVG-20010904/DTD/svg10.dtd">
<svg version="1.0" xmlns="http://www.w3.org/2000/svg"
 width="558.000000pt" height="558.000000pt" viewBox="0 0 558.000000 558.000000"
 preserveAspectRatio="xMidYMid meet">
<metadata>
Created by potrace 1.14, written by Peter Selinger 2001-2017
</metadata>
<g transform="translate(0.000000,558.000000) scale(0.100000,-0.100000)"
fill="#000000" stroke="none">
<path d="M2382 5431 c2 -5 59 -67 128 -138 204 -210 339 -371 326 -391 -3 -5
-36 -4 -73 1 -113 15 -452 2 -566 -23 -54 -11 -106 -25 -115 -29 -9 -5 -39
-17 -67 -26 -86 -30 -257 -116 -315 -158 -55 -41 -157 -134 -238 -217 -24 -25
-62 -76 -84 -115 -22 -38 -46 -77 -53 -85 -36 -42 -175 -338 -175 -371 0 -10
-13 -55 -30 -101 -42 -114 -39 -123 21 -65 19 18 48 41 64 51 32 20 152 115
194 155 59 54 221 141 221 117 0 -7 -10 -21 -22 -33 -51 -44 -218 -265 -218
-286 0 -4 -26 -63 -59 -130 -65 -136 -132 -331 -154 -452 -18 -93 -35 -272
-43 -435 -4 -100 -8 -117 -26 -132 -11 -10 -26 -18 -34 -18 -21 0 -154 -62
-154 -71 0 -5 -4 -9 -9 -9 -15 0 -194 -102 -236 -134 -22 -17 -41 -32 -43 -32
-2 -1 10 -21 27 -45 17 -23 31 -46 31 -51 0 -12 83 -122 127 -168 19 -19 53
-62 76 -94 84 -119 519 -554 610 -611 18 -10 73 -53 122 -95 109 -91 189 -150
203 -150 6 0 19 -8 29 -19 10 -10 68 -51 128 -91 61 -40 112 -77 115 -81 3 -4
41 -26 85 -49 44 -23 98 -55 121 -70 23 -15 81 -49 130 -75 49 -27 105 -59
124 -72 19 -13 41 -23 48 -23 8 0 60 -23 116 -51 172 -87 421 -196 463 -203
46 -8 51 -4 112 105 24 42 62 101 84 130 22 30 61 88 86 130 70 116 75 125
161 259 43 69 97 161 119 205 22 44 52 98 67 120 34 50 109 185 189 340 74
143 88 168 97 175 18 14 289 572 284 585 -3 8 -40 32 -83 55 -43 22 -97 51
-121 65 -23 14 -48 25 -54 25 -16 0 -118 53 -118 61 0 12 151 149 165 149 8 0
17 -5 21 -11 21 -35 442 28 502 75 60 48 113 103 127 133 29 61 16 272 -28
443 -37 144 -60 210 -75 210 -5 0 -35 -12 -67 -26 -79 -36 -145 -36 -220 2
-79 40 -215 175 -215 214 0 8 -9 40 -21 70 -30 78 -36 225 -15 364 9 60 14
111 11 114 -2 3 -45 -1 -94 -8 -159 -23 -264 1 -332 74 -88 96 -109 122 -159
203 -30 48 -64 101 -77 116 -13 16 -23 34 -23 41 0 43 -215 279 -340 373 -96
72 -296 162 -465 208 -27 8 -104 30 -169 49 -124 38 -150 42 -144 27z m1376
-2152 c32 -48 32 -49 10 -51 -25 -1 -59 -1 -70 1 -9 1 -10 47 -2 79 9 33 26
26 62 -29z m-583 -372 c71 -65 73 -83 9 -66 -22 6 -43 26 -72 68 -74 104 -49
103 63 -2z m844 19 c28 -29 21 -46 -16 -40 -35 7 -37 8 -29 39 8 31 16 31 45
1z m-2469 -163 c0 -14 -15 -29 -32 -36 -22 -8 -23 1 -1 25 17 18 33 24 33 11z"/>
</g>
</svg>
